<?xml version="1.0" encoding="UTF-8"?>
<svg width="396.51" height="140.79" version="1.1" viewBox="0 0 104.91 37.25" xmlns="http://www.w3.org/2000/svg" xmlns:cc="http://creativecommons.org/ns#" xmlns:dc="http://purl.org/dc/elements/1.1/" xmlns:rdf="http://www.w3.org/1999/02/22-rdf-syntax-ns#">
 <defs>
  <filter id="filter16287" color-interpolation-filters="sRGB">
   <feFlood flood-color="rgb(0,0,0)" result="flood"/>
   <feComposite in="flood" in2="SourceGraphic" operator="in" result="composite1"/>
   <feGaussianBlur in="composite1" result="blur" stdDeviation="0.2"/>
   <feOffset dx="0.1" dy="0.3" result="offset"/>
   <feComposite in="SourceGraphic" in2="offset" result="composite2"/>
  </filter>
 </defs>
 <metadata>
  <rdf:RDF>
   <cc:Work rdf:about="">
    <dc:format>image/svg+xml</dc:format>
    <dc:type rdf:resource="http://purl.org/dc/dcmitype/StillImage"/>
    <dc:title/>
   </cc:Work>
  </rdf:RDF>
 </metadata>
 <g transform="matrix(1.2309 0 0 1.2309 -8.768 -13.753)">
  <g filter="url(#filter16287)">
   <g transform="translate(.52917 .66146)" fill="#ececec">
    <g stroke-width=".14056" aria-label="RESCUE">
     <path d="m43.122 27.817h1.527v-1.6687h0.66904l1.1098 1.6687h1.7631l-1.3145-1.9206c0.68479-0.29123 1.1334-0.85008 1.1334-1.6923v-0.01574c0-0.54311-0.16529-0.96815-0.48801-1.283-0.36994-0.37781-0.9524-0.5982-1.7946-0.5982h-2.6053zm1.527-2.8651v-1.3223h0.99963c0.51162 0 0.82647 0.22039 0.82647 0.6533v0.01574c0 0.40143-0.2991 0.6533-0.8186 0.6533z"/>
     <path d="m48.781 27.817h4.4708v-1.2987h-2.9595v-0.87369h2.6447v-1.2043h-2.6447v-0.83434h2.9202v-1.2987h-4.4314z"/>
     <path d="m56.195 27.911c1.3381 0 2.2275-0.66904 2.2275-1.7946v-0.01574c0-1.0311-0.78711-1.4404-2.0544-1.7159-0.7635-0.17316-0.9524-0.28336-0.9524-0.53524v-0.01574c0-0.19678 0.18104-0.3542 0.55098-0.3542 0.48801 0 1.039 0.18891 1.5427 0.54311l0.7635-1.0783c-0.5982-0.48014-1.3302-0.73201-2.2669-0.73201-1.3223 0-2.1331 0.73988-2.1331 1.7631v0.01574c0 1.1334 0.90518 1.464 2.078 1.7316 0.74776 0.17316 0.92879 0.2991 0.92879 0.52736v0.01574c0 0.23613-0.22039 0.37781-0.62969 0.37781-0.63756 0-1.2436-0.22826-1.7867-0.66117l-0.85008 1.0154c0.67692 0.60608 1.6057 0.91305 2.5817 0.91305z"/>
     <path d="m61.815 27.927c1.22 0 1.9206-0.52736 2.44-1.2436l-1.1492-0.8186c-0.33059 0.40143-0.66904 0.66904-1.2436 0.66904-0.77137 0-1.3145-0.64543-1.3145-1.4719v-0.01574c0-0.80285 0.54311-1.4562 1.3145-1.4562 0.52736 0 0.88944 0.25188 1.2043 0.64543l1.1492-0.88944c-0.48801-0.67692-1.2122-1.1492-2.3377-1.1492-1.6687 0-2.9044 1.2594-2.9044 2.8651v0.01574c0 1.6451 1.2672 2.8493 2.8415 2.8493z"/>
     <path d="m67.388 27.919c1.5664 0 2.5817-0.77924 2.5817-2.5581v-3.054h-1.5506v3.1012c0 0.77137-0.40143 1.1334-1.0154 1.1334-0.61395 0-1.0154-0.37781-1.0154-1.1728v-3.0619h-1.5506v3.0933c0 1.7238 0.98389 2.5188 2.5502 2.5188z"/>
     <path d="m70.875 27.817h4.4708v-1.2987h-2.9595v-0.87369h2.6447v-1.2043h-2.6447v-0.83434h2.9202v-1.2987h-4.4314z"/>
    </g>
    <g stroke-width=".10958" style="font-feature-settings:normal;font-variant-caps:normal;font-variant-ligatures:normal;font-variant-numeric:normal" aria-label="HARDWARE">
     <path d="m7.214 27.333h0.67914v-1.6288h1.8442v1.6288h0.67914v-3.865h-0.67914v1.6067h-1.8442v-1.6067h-0.67914z" style="font-feature-settings:normal;font-variant-caps:normal;font-variant-ligatures:normal;font-variant-numeric:normal"/>
     <path d="m11.079 27.333h0.6957l0.39755-0.93313h1.8276l0.39202 0.93313h0.71779l-1.7006-3.8926h-0.62945zm1.3417-1.535 0.66258-1.546 0.6681 1.546z" style="font-feature-settings:normal;font-variant-caps:normal;font-variant-ligatures:normal;font-variant-numeric:normal"/>
     <path d="m15.772 27.333h0.67914v-1.3472h0.85031l0.94969 1.3472h0.80614l-1.0436-1.4632c0.53558-0.1546 0.91656-0.53558 0.91656-1.1706v-0.01104c0-0.33681-0.11595-0.62393-0.32025-0.83374-0.24847-0.24294-0.62945-0.3865-1.1153-0.3865h-1.7227zm0.67914-1.9491v-1.2975h0.98834c0.50245 0 0.80061 0.22638 0.80061 0.64049v0.01104c0 0.39202-0.3092 0.64601-0.79509 0.64601z" style="font-feature-settings:normal;font-variant-caps:normal;font-variant-ligatures:normal;font-variant-numeric:normal"/>
     <path d="m19.764 27.333h1.4411c1.2147 0 2.054-0.84478 2.054-1.9325v-0.01104c0-1.0877-0.83926-1.9215-2.054-1.9215h-1.4411zm1.4411-3.2466c0.81166 0 1.3417 0.55767 1.3417 1.3141v0.01104c0 0.75644-0.53006 1.3031-1.3417 1.3031h-0.76196v-2.6282z" style="font-feature-settings:normal;font-variant-caps:normal;font-variant-ligatures:normal;font-variant-numeric:normal"/>
     <path d="m24.916 27.36h0.58528l0.94969-2.7773 0.94969 2.7773h0.5908l1.3417-3.8926h-0.71227l-0.92208 2.8656-0.94969-2.8767h-0.57423l-0.94969 2.8767-0.92209-2.8656h-0.73436z" style="font-feature-settings:normal;font-variant-caps:normal;font-variant-ligatures:normal;font-variant-numeric:normal"/>
     <path d="m29.201 27.333h0.6957l0.39755-0.93313h1.8276l0.39202 0.93313h0.71779l-1.7006-3.8926h-0.62945zm1.3417-1.535 0.66258-1.546 0.6681 1.546z" style="font-feature-settings:normal;font-variant-caps:normal;font-variant-ligatures:normal;font-variant-numeric:normal"/>
     <path d="m33.894 27.333h0.67914v-1.3472h0.85031l0.94969 1.3472h0.80613l-1.0436-1.4632c0.53558-0.1546 0.91656-0.53558 0.91656-1.1706v-0.01104c0-0.33681-0.11595-0.62393-0.32025-0.83374-0.24847-0.24294-0.62945-0.3865-1.1153-0.3865h-1.7227zm0.67914-1.9491v-1.2975h0.98834c0.50245 0 0.80061 0.22638 0.80061 0.64049v0.01104c0 0.39202-0.3092 0.64601-0.79509 0.64601z" style="font-feature-settings:normal;font-variant-caps:normal;font-variant-ligatures:normal;font-variant-numeric:normal"/>
     <path d="m37.886 27.333h2.8933v-0.60736h-2.2141v-1.038h1.938v-0.60736h-1.938v-1.0049h2.1865v-0.60736h-2.8656z" style="font-feature-settings:normal;font-variant-caps:normal;font-variant-ligatures:normal;font-variant-numeric:normal"/>
    </g>
    <g transform="matrix(.27353 0 0 -.16558 -98.544 89.81)">
     <path transform="scale(1,-1)" d="m602.5-435.44h18.567v9.5342h-18.567z"/>
     <path transform="scale(1,-1)" d="m574.9-452h27.599v16.559h-27.599z"/>
     <path transform="scale(1,-1)" d="m593.47-425.91h9.0324v6.0216h-9.0324z"/>
    </g>
    <path d="m73.847 21.015c1.7137-2.4873 3.4271-4.9745 5.1902-7.5334h-39.649c1.8317 2.6529 3.533 5.1168 5.2343 7.5808-0.03396 0.03959-0.06791 0.07918-0.10171 0.11891-0.17244-0.12796-0.36297-0.23768-0.51465-0.38669-2.1763-2.1384-4.3494-4.28-6.5187-6.4253-0.99105-0.98022-0.93485-2.1584 0.2485-2.9083 0.53719-0.34028 1.2529-0.55883 1.8884-0.56032 13.056-0.03144 26.111-0.0372 39.167 0.01156 0.74462 0.0029 1.6062 0.36208 2.2038 0.82558 0.94879 0.73602 0.88414 1.6946 0.03127 2.5406-2.1913 2.1735-4.3899 4.3398-6.5889 6.5055-0.13567 0.13359-0.30084 0.23724-0.45208 0.35481-0.04611-0.04123-0.09207-0.08244-0.13819-0.12381"/>
    <g transform="matrix(.14827 0 0 -.14827 79.965 39.761)">
     <path d="m0 0c-3.4-0.93-7.11-1.05-10.67-1.05-85.9-0.05-171.8-0.12-257.69 0.15-5.67 0.01-12.07 1.5-16.81 4.44-7.48 4.64-7.28 12.26-1.181 18.61 15.071 15.69 30.621 30.32 46.621 45.32 2 1 2 0 1.33-0.52-11.431-16.58-22.86-33.16-34.911-50.64h267.56c-11.79 17.11-22.98 33.34-34.16 49.58-0.111 0.27-0.481 1.48 0.899 1.07 1.45-1.18 3.021-2.24 4.341-3.54 13.68-13.39 27.34-26.81 40.98-40.231 8.679-8.549 5.669-19.919-6.31-23.189" fill="#ececec"/>
    </g>
    <path d="m75.351 35.712-0.7895-1.1861h-2.488l0.59946 1.1033 0.04433 0.08275z"/>
    <path d="m72.39 31.264-0.7895-1.1861h-1.9437l0.64442 1.1861z"/>
    <path d="m72.059 35.712-0.64442-1.1861h-2.1496l0.4763 1.1292 0.02475 0.0569z"/>
    <path d="m69.138 35.712-0.50042-1.1861h-2.1765l0.34795 1.1583 0.0087 0.02783z"/>
    <path d="m62.489 31.264-0.2122-1.1861h-1.6689l0.0682 1.1861z"/>
    <path d="m67.389 30.078 0.50042 1.1861h1.7534l-0.64441-1.1861z"/>
    <path d="m67.261 31.264-0.5002-1.1861h-1.6366l0.35642 1.1861z"/>
    <path d="m64.877 31.264-0.35642-1.1861h-1.6568l0.2122 1.1861z"/>
    <path d="m54.475 35.712 0.22002-1.1861h-2.1963l-0.3638 1.1861zm2.9011 0 0.11572-1.1861h-3.3716l-0.33587 1.1861zm7.0911 0-0.24272-1.1861h-7.8777l-0.26978 1.1861zm-1.1822 0-0.2122-1.1861h-2.2091l0.0682 1.1861zm2.9284 0-0.3562-1.1861h-2.1971l0.2122 1.1861z"/>
    <path d="m55.299 31.264 0.2198-1.1861h-1.6559l-0.3638 1.1861z"/>
    <path d="m55.888 31.264h1.8125l0.0758-1.1861h-1.6685z"/>
    <path d="m58.355 30.078-0.0758 1.1861h1.8173l-0.0682-1.1861z"/>
    <path d="m51.531 35.712 0.0076-0.02934 0.35489-1.1568h-2.1756l-0.5078 1.1861z"/>
    <path d="m52.894 31.264 0.36402-1.1861h-1.6355l-0.5078 1.1861z"/>
    <path d="m48.581 35.712 0.02518-0.05842 0.48304-1.1277h-2.1478l-0.65202 1.1861z"/>
    <path d="m50.486 31.264 0.50802-1.1861h-1.6077l-0.65201 1.1861z"/>
    <path d="m46.896 30.078-0.79754 1.1861h1.9756l0.65202-1.1861z"/>
    <path d="m70.967 32.302v1.1861h1.9736v-1.1861zm0.04887 0h-1.42l0.57252 1.1861h0.84749zm2.8548 1.1861-0.7895-1.1861h-0.9461l0.71631 1.1861z"/>
    <path d="m69.526 33.488-0.57252-1.1861h-1.8937l0.42831 1.1861z"/>
    <path d="m66.873 33.488-0.42852-1.1861h-1.9176l0.2843 1.1861z"/>
    <path d="m64.216 33.488-0.28431-1.1861h-1.9337l0.14009 1.1861z"/>
    <path d="m61.556 33.488-0.14031-1.1861h-1.9424l-0.0038 1.1861z"/>
    <path d="m58.892 33.488 0.0038-1.1861h-1.9419l-0.14791 1.1861z"/>
    <path d="m56.223 33.488 0.14769-1.1861h-1.933l-0.29191 1.1861z"/>
    <path d="m53.55 33.488 0.29191-1.1861h-1.917l-0.43591 1.1861z"/>
    <path d="m50.874 33.488 0.4359-1.1861h-1.8926l-0.57991 1.1861z"/>
    <path d="m45.455 32.302v1.1861h2.0125v-1.1861zm1.8279 0h-0.37184l-0.72412 1.1861h1.096zm0.01084 1.1861h0.89918l0.57991-1.1861h-1.4791zm-1.8931-1.1861-0.79754 1.1861h0.90635l0.72412-1.1861z"/>
    <path d="m44.698 34.526v1.1861h0.28539v-1.1861zm0.10078 0h-0.40633l-0.93311 1.1861h1.3394zm0.01084 1.1861h0.8199l0.65202-1.1861h-1.4719zm-0.90375-1.1861-0.79754 1.1861h0.54559l0.79754-1.1861z"/>
    <g stroke-width=".10958" style="font-feature-settings:normal;font-variant-caps:normal;font-variant-ligatures:normal;font-variant-numeric:normal" aria-label=".COM">
     <path d="m77.379 27.333h0.73436v-0.76196h-0.73436z" style="font-feature-settings:normal;font-variant-caps:normal;font-variant-ligatures:normal;font-variant-numeric:normal"/>
     <path d="m80.559 27.399c0.72331 0 1.165-0.26503 1.5681-0.68466l-0.4362-0.44172c-0.33129 0.3092-0.63497 0.49693-1.1098 0.49693-0.73988 0-1.2755-0.61288-1.2755-1.3693v-0.01104c0-0.75644 0.5411-1.3638 1.2755-1.3638 0.44172 0 0.773 0.19325 1.0822 0.48037l0.4362-0.50245c-0.36994-0.35337-0.80061-0.60184-1.5129-0.60184-1.1706 0-1.9933 0.9-1.9933 1.9988v0.01104c0 1.1098 0.83926 1.9877 1.9656 1.9877z" style="font-feature-settings:normal;font-variant-caps:normal;font-variant-ligatures:normal;font-variant-numeric:normal"/>
     <path d="m84.573 27.399c1.1871 0 2.0264-0.91104 2.0264-1.9988v-0.01104c0-1.0877-0.82822-1.9877-2.0153-1.9877s-2.0264 0.91104-2.0264 1.9988v0.01104c0 1.0877 0.82822 1.9877 2.0153 1.9877zm0.01104-0.62945c-0.76748 0-1.3141-0.6184-1.3141-1.3693v-0.01104c0-0.75092 0.53558-1.3638 1.3031-1.3638s1.3141 0.62393 1.3141 1.3748v0.01104c0 0.75092-0.53558 1.3583-1.3031 1.3583z" style="font-feature-settings:normal;font-variant-caps:normal;font-variant-ligatures:normal;font-variant-numeric:normal"/>
     <path d="m87.422 27.333h0.6681v-2.7607l1.2092 1.811h0.02208l1.2202-1.8221v2.7718h0.67914v-3.865h-0.72331l-1.1761 1.8276-1.1761-1.8276h-0.72331z" style="font-feature-settings:normal;font-variant-caps:normal;font-variant-ligatures:normal;font-variant-numeric:normal"/>
    </g>
   </g>
  </g>
 </g>
</svg>
